<svg width="116" height="40" viewBox="0 0 116 40" fill="none" xmlns="http://www.w3.org/2000/svg">
<g clip-path="url(#clip0_136_18)">
<path fill-rule="evenodd" clip-rule="evenodd" d="M70.3031 13.1382C68.4716 13.1382 67.0217 13.5185 65.5718 14.3552C65.5718 10.172 65.5718 6.29299 65.7244 5L56.7961 6.59722V7.3578L57.7118 7.50992C58.9328 7.7381 59.3143 8.42262 59.5433 10.0198C59.7722 13.2143 59.6959 30.0232 59.5433 32.8373C61.9089 33.3697 64.4272 33.75 66.9454 33.75C73.966 33.75 78.1631 29.4147 78.1631 22.5694C78.2394 17.0933 74.8054 13.1382 70.3031 13.1382ZM67.2506 32.2288C66.7165 32.2288 66.0297 32.2288 65.6481 32.0767C65.4955 30.2513 65.4192 22.4934 65.4955 15.6481C66.2586 15.42 66.7928 15.2679 67.4796 15.2679C70.3794 15.2679 71.9819 18.6905 71.9819 22.8737C71.9819 28.1978 69.9978 32.2288 67.2506 32.2288Z" fill="white"/>
<path fill-rule="evenodd" clip-rule="evenodd" d="M23.5247 5.53228H0.25V6.74921L1.54728 6.90132C3.30242 7.1295 3.91291 8.19431 4.21815 10.7042C4.5997 15.4198 4.44708 24.0144 4.21815 28.1216C3.98922 30.6315 3.30242 31.7724 1.54728 31.9245L0.25 32.1526V33.2175H15.2069V32.1526L13.6043 31.9245C11.8492 31.7724 11.2387 30.6315 10.9335 28.1216C10.7809 26.3722 10.7045 23.6341 10.7045 20.2115L13.9096 20.3636C15.8937 20.3636 16.8094 21.9608 17.1909 24.1665H18.4119V14.7353H17.1909C16.8094 16.941 15.8937 18.5382 13.9096 18.5382L10.7045 18.6903C10.7045 14.2029 10.8572 10.0197 10.9335 7.50979H15.5884C19.175 7.50979 21.0065 9.71548 22.3037 13.6705L23.601 13.2902L23.5247 5.53228Z" fill="white"/>
<path fill-rule="evenodd" clip-rule="evenodd" d="M31.0032 12.9101C37.6422 12.9101 40.9235 17.3975 40.9235 23.3301C40.9235 28.9584 37.2606 33.75 30.6216 33.75C23.9826 33.75 20.7012 29.2626 20.7012 23.3301C20.7012 17.6257 24.4404 12.9101 31.0032 12.9101ZM30.6216 14.2031C27.7218 14.2031 26.9587 18.1581 26.9587 23.254C26.9587 28.2739 28.256 32.3049 30.9268 32.3049C33.9793 32.3049 34.7424 28.3499 34.7424 23.254C34.7424 18.3102 33.4451 14.2031 30.6216 14.2031Z" fill="white"/>
<path fill-rule="evenodd" clip-rule="evenodd" d="M79.9182 23.4062C79.9182 18.0061 83.3522 12.8341 90.0675 12.8341C95.6382 12.8341 98.2327 16.9412 98.2327 22.3414H85.9467C85.7941 27.2091 88.1598 30.7838 92.9673 30.7838C95.104 30.7838 96.1723 30.2514 97.4696 29.3387L98.0038 30.0233C96.7065 31.8487 93.8067 33.6741 90.0675 33.6741C84.1916 33.7501 79.9182 29.4908 79.9182 23.4062ZM86.0231 20.9723L92.2042 20.8202C92.2042 18.1582 91.8227 14.2031 89.5333 14.2031C87.3203 14.2031 86.1757 17.93 86.0231 20.9723Z" fill="white"/>
<path fill-rule="evenodd" clip-rule="evenodd" d="M114.029 13.9749C112.426 13.2904 110.366 12.9101 107.924 12.9101C103.04 12.9101 99.9879 15.8003 99.9879 19.2229C99.9879 22.6456 102.201 24.0907 105.406 25.1555C108.687 26.3724 109.603 27.2851 109.603 28.8063C109.603 30.4035 108.382 31.8486 106.322 31.8486C103.803 31.8486 101.972 30.4035 100.522 26.4485L99.6063 26.6766L99.7589 32.4571C101.361 33.1416 104.261 33.674 106.78 33.674C111.969 33.674 115.25 31.012 115.25 26.9809C115.25 24.2428 113.8 22.6456 110.366 21.3526C106.703 19.9075 105.33 18.9948 105.33 17.2454C105.33 15.4961 106.551 14.3552 108.077 14.3552C110.442 14.3552 112.045 15.8003 113.266 19.3751L114.182 19.1469L114.029 13.9749Z" fill="white"/>
<path fill-rule="evenodd" clip-rule="evenodd" d="M58.0934 13.4426C55.8804 12.1496 51.9122 12.7581 49.7755 17.5497L49.9282 12.9102L41.0761 14.6595V15.4201L41.9919 15.5722C43.2128 15.7243 43.747 16.3328 43.8233 18.0821C44.0523 21.2766 43.9759 26.7528 43.8233 29.5669C43.6707 31.1642 43.1365 31.9247 41.9919 32.0769L41.0761 32.229V33.2938H53.3621V32.229L51.7596 32.0769C50.4623 31.9247 50.0045 31.1642 49.9282 29.5669C49.6992 27.057 49.6992 22.0372 49.7755 18.9188C50.4623 18.0061 53.3621 17.1694 55.9567 18.9188L58.0934 13.4426Z" fill="white"/>
</g>
<defs>
<clipPath id="clip0_136_18">
<rect width="115" height="40" fill="white" transform="translate(0.25)"/>
</clipPath>
</defs>
</svg>
