<?xml version="1.0" encoding="utf-8"?>
<!-- Generator: Adobe Illustrator 14.0.0, SVG Export Plug-In . SVG Version: 6.00 Build 43363)  -->
<!DOCTYPE svg PUBLIC "-//W3C//DTD SVG 1.1//EN" "http://www.w3.org/Graphics/SVG/1.1/DTD/svg11.dtd">
<svg version="1.1" id="Layer_1" xmlns="http://www.w3.org/2000/svg" xmlns:xlink="http://www.w3.org/1999/xlink" x="0px" y="0px"
	 width="260px" height="260px" viewBox="0 0 260 260" enable-background="new 0 0 260 260" xml:space="preserve">
<rect x="8.979" y="14.62" fill-rule="evenodd" clip-rule="evenodd" fill="none" width="242.284" height="234.682"/>
<g>
	<path d="M28.434,245.343l0.244-3.708c-1.552,0.688-3.907,1.186-5.664,1.186c-5.62,0-7.5-3.402-6.301-9.403
		c1.079-5.389,4.349-9.517,9.738-9.517c1.873,0,3.644,0.306,5.403,0.88l1.224-3.821c-1.715-0.422-3.639-0.728-5.552-0.728
		c-8.675,0-13.896,5.849-15.499,13.874c-1.376,6.879,0.682,12.461,9.318,12.461C23.832,246.566,26.333,246.106,28.434,245.343
		L28.434,245.343z"/>
	<path d="M46.174,226.883c-3.485-0.344-5.868,2.024-7.225,4.586h-0.075c0.559-1.453,1.009-3.133,1.224-4.204h-3.899l-3.796,18.996
		h4.089l1.544-7.721c1.136-5.694,3.498-8.332,7.146-7.645L46.174,226.883L46.174,226.883z"/>
	<polygon points="49.549,246.261 53.345,227.265 49.256,227.265 45.459,246.261 49.549,246.261 	"/>
	<path fill="#E71C23" d="M55.203,221.877c0.313-1.569-0.726-2.767-2.254-2.767c-1.568,0-3.094,1.239-3.398,2.767
		c-0.306,1.525,0.724,2.765,2.294,2.765C53.373,224.642,54.899,223.402,55.203,221.877L55.203,221.877z"/>
	<path d="M67.391,245.61l0.352-3.479c-1.224,0.573-2.86,0.918-4.311,0.918c-3.784,0-4.518-2.638-3.824-6.116
		c0.802-4.013,3.071-6.572,6.55-6.572c1.375,0,2.615,0.305,3.677,0.726l1.131-3.556c-1.186-0.382-2.598-0.571-4.013-0.571
		c-6.538,0-10.511,4.395-11.717,10.433c-1.353,6.766,1.72,9.174,6.612,9.174C63.952,246.566,66.032,246.106,67.391,245.61
		L67.391,245.61z"/>
	<polygon points="86.732,246.261 81.226,235.94 89.993,227.265 84.986,227.265 77.206,235.405 80.612,218.36 76.523,218.36 
		70.947,246.261 75.037,246.261 76.96,236.629 81.532,246.261 86.732,246.261 	"/>
	<path fill-rule="evenodd" clip-rule="evenodd" d="M106.185,235.1c0.901-4.51-0.69-8.217-6.118-8.217
		c-5.541,0-9.531,4.281-10.675,10.012c-1.337,6.689,1.299,9.748,7.223,9.748c2.333,0,4.75-0.421,6.82-1.224l0.266-3.248
		c-1.719,0.764-3.836,1.223-5.784,1.223c-3.786,0-5.335-1.988-4.344-6.384h12.116C105.91,236.285,106.078,235.636,106.185,235.1
		L106.185,235.1z M102.288,234.144H94.22c0.857-2.56,2.796-4.243,5.09-4.243C101.719,229.9,102.881,231.546,102.288,234.144
		L102.288,234.144z"/>
	<path d="M117.938,246.184l0.674-3.363c-0.764,0.191-1.706,0.305-2.547,0.305c-1.911,0-2.331-0.764-1.765-3.592l1.816-9.098h4.969
		l0.634-3.171h-5.008l1.429-7.148l-4.272,1.109l-1.208,6.039h-3.631l-0.632,3.171h3.629l-2.07,10.358
		c-0.846,4.243,0.063,5.81,4.115,5.81C115.331,246.604,116.786,246.412,117.938,246.184L117.938,246.184z"/>
	<path d="M146.851,245.343l0.243-3.708c-1.551,0.688-3.904,1.186-5.662,1.186c-5.618,0-7.498-3.402-6.301-9.403
		c1.078-5.389,4.349-9.517,9.736-9.517c1.874,0,3.647,0.306,5.406,0.88l1.222-3.821c-1.713-0.422-3.638-0.728-5.55-0.728
		c-8.676,0-13.891,5.849-15.493,13.874c-1.375,6.879,0.683,12.461,9.313,12.461C142.25,246.566,144.751,246.106,146.851,245.343
		L146.851,245.343z"/>
	<path fill-rule="evenodd" clip-rule="evenodd" d="M168.575,236.399c1.337-6.689-1.689-9.517-6.773-9.517
		c-5.771,0-10.356,4.396-11.503,10.127c-1.336,6.688,1.517,9.633,6.791,9.633C162.709,246.643,167.408,242.247,168.575,236.399
		L168.575,236.399z M164.319,236.667c-0.88,4.396-3.509,6.458-6.146,6.458c-3.172,0-4.402-2.253-3.549-6.535
		c0.872-4.357,3.66-6.268,6.145-6.268C164.019,230.322,165.129,232.615,164.319,236.667L164.319,236.667z"/>
	<path d="M186.463,246.261l3.797-18.996h-4.088l-1.834,9.173c-0.756,3.783-3.462,6.803-6.328,6.803c-2.18,0-2.553-1.374-2.08-3.745
		l2.445-12.23h-4.052l-2.659,13.302c-0.672,3.361,0.123,6.076,4.443,6.076c3.211,0,5.84-1.682,7.436-4.128l0.032,0.038
		c-0.406,1.07-0.81,2.714-1.011,3.708H186.463L186.463,246.261z"/>
	<path d="M207.856,246.261l2.657-13.302c0.672-3.363-0.123-6.076-4.441-6.076c-3.211,0-5.84,1.682-7.438,4.127l-0.031-0.038
		c0.406-1.071,0.811-2.713,1.01-3.707h-3.898l-3.797,18.996h4.09l1.832-9.174c0.758-3.784,3.463-6.803,6.328-6.803
		c2.179,0,2.555,1.375,2.08,3.746l-2.444,12.23H207.856L207.856,246.261z"/>
	<path d="M225.708,245.61l0.352-3.479c-1.224,0.573-2.858,0.918-4.312,0.918c-3.783,0-4.518-2.638-3.824-6.116
		c0.803-4.013,3.072-6.572,6.551-6.572c1.376,0,2.613,0.305,3.678,0.726l1.131-3.556c-1.186-0.382-2.6-0.571-4.016-0.571
		c-6.533,0-10.51,4.395-11.715,10.433c-1.352,6.766,1.721,9.174,6.613,9.174C222.269,246.566,224.346,246.106,225.708,245.61
		L225.708,245.61z"/>
	<path fill-rule="evenodd" clip-rule="evenodd" d="M238.8,221.877c0.29-1.454-0.672-2.563-2.088-2.563
		c-1.451,0-2.864,1.148-3.147,2.563c-0.283,1.414,0.672,2.559,2.124,2.559C237.102,224.436,238.517,223.291,238.8,221.877
		L238.8,221.877z M233.354,246.261l3.797-18.996h-4.09l-3.797,18.996H233.354L233.354,246.261z"/>
	<polygon points="242.889,246.261 248.463,218.36 244.375,218.36 238.799,246.261 242.889,246.261 	"/>
	<polygon points="23.762,208.037 28.918,182.238 24.751,182.238 19.596,208.037 23.762,208.037 	"/>
	<path d="M46.81,208.037l2.659-13.302c0.672-3.362-0.125-6.076-4.443-6.076c-3.209,0-5.839,1.682-7.435,4.128l-0.031-0.038
		c0.405-1.07,0.81-2.714,1.006-3.708h-3.897l-3.794,18.996h4.09l1.832-9.173c0.756-3.783,3.463-6.804,6.327-6.804
		c2.18,0,2.556,1.375,2.079,3.746l-2.442,12.23H46.81L46.81,208.037z"/>
	<path d="M63.463,207.96l0.672-3.361c-0.764,0.189-1.704,0.305-2.547,0.305c-1.911,0-2.329-0.766-1.764-3.592l1.817-9.098h4.967
		l0.634-3.173h-5.004l1.427-7.146l-4.272,1.108l-1.209,6.038h-3.629l-0.634,3.173h3.631l-2.072,10.357
		c-0.845,4.242,0.064,5.81,4.115,5.81C60.855,208.381,62.309,208.19,63.463,207.96L63.463,207.96z"/>
	<path fill-rule="evenodd" clip-rule="evenodd" d="M86.093,196.877c0.897-4.511-0.691-8.218-6.118-8.218
		c-5.541,0-9.531,4.281-10.676,10.014c-1.337,6.688,1.301,9.746,7.225,9.746c2.332,0,4.745-0.42,6.817-1.223l0.268-3.249
		c-1.719,0.765-3.836,1.223-5.786,1.223c-3.783,0-5.337-1.987-4.342-6.382h12.115C85.816,198.061,85.984,197.413,86.093,196.877
		L86.093,196.877z M82.193,195.922h-8.065c0.858-2.562,2.798-4.243,5.09-4.243C81.625,191.679,82.791,193.323,82.193,195.922
		L82.193,195.922z"/>
	<path d="M103.37,188.659c-3.485-0.344-5.87,2.025-7.222,4.586h-0.077c0.559-1.451,1.008-3.134,1.222-4.204h-3.898l-3.793,18.996
		h4.09l1.541-7.72c1.138-5.695,3.5-8.333,7.146-7.644L103.37,188.659L103.37,188.659z"/>
	<path d="M120.668,208.037l2.66-13.302c0.671-3.362-0.125-6.076-4.443-6.076c-3.21,0-5.839,1.682-7.435,4.128l-0.033-0.038
		c0.407-1.07,0.81-2.714,1.008-3.708h-3.899l-3.793,18.996h4.089l1.833-9.173c0.757-3.783,3.461-6.804,6.327-6.804
		c2.18,0,2.554,1.375,2.08,3.746l-2.442,12.23H120.668L120.668,208.037z"/>
	<path fill-rule="evenodd" clip-rule="evenodd" d="M140.688,208.037c0.244-1.605,0.596-3.555,0.923-5.2l1.552-7.756
		c0.777-3.899-0.322-6.422-6.132-6.422c-2.446,0-4.918,0.536-6.934,1.262l-0.311,3.479c1.8-0.994,4.197-1.53,5.953-1.53
		c2.98,0,3.73,1.225,3.258,3.594l-0.244,1.223c-6.836,0-11.696,2.523-12.565,6.88c-0.604,3.021,1.092,4.854,4.343,4.854
		c3.012,0,5.717-1.683,7.084-3.937l0.031,0.037c-0.359,1.032-0.649,2.294-0.895,3.518H140.688L140.688,208.037z M138.126,199.82
		c-0.542,2.712-2.95,5.389-5.735,5.389c-1.603,0-2.413-0.918-2.131-2.331c0.33-1.646,1.984-3.441,7.941-3.441L138.126,199.82
		L138.126,199.82z"/>
	<path d="M157.181,207.96l0.675-3.361c-0.765,0.189-1.705,0.305-2.545,0.305c-1.912,0-2.334-0.766-1.767-3.592l1.816-9.098h4.97
		l0.633-3.173h-5.006l1.427-7.146l-4.271,1.108l-1.208,6.038h-3.63l-0.634,3.173h3.631l-2.071,10.357
		c-0.847,4.242,0.063,5.81,4.114,5.81C154.575,208.381,156.028,208.19,157.181,207.96L157.181,207.96z"/>
	<path fill-rule="evenodd" clip-rule="evenodd" d="M172.211,183.651c0.291-1.451-0.674-2.56-2.088-2.56
		c-1.451,0-2.865,1.146-3.148,2.56c-0.283,1.415,0.672,2.562,2.127,2.562C170.515,186.213,171.929,185.066,172.211,183.651
		L172.211,183.651z M166.766,208.037l3.794-18.996h-4.089l-3.795,18.996H166.766L166.766,208.037z"/>
	<path fill-rule="evenodd" clip-rule="evenodd" d="M192.359,198.177c1.335-6.69-1.693-9.518-6.775-9.518
		c-5.771,0-10.357,4.395-11.503,10.129c-1.335,6.688,1.516,9.631,6.79,9.631C186.489,208.419,191.19,204.023,192.359,198.177
		L192.359,198.177z M188.102,198.442c-0.879,4.395-3.509,6.461-6.147,6.461c-3.171,0-4.403-2.255-3.546-6.536
		c0.869-4.357,3.66-6.268,6.145-6.268C187.802,192.1,188.911,194.392,188.102,198.442L188.102,198.442z"/>
	<path d="M211.65,208.037l2.657-13.302c0.673-3.362-0.122-6.076-4.442-6.076c-3.21,0-5.838,1.682-7.436,4.128l-0.029-0.038
		c0.402-1.07,0.809-2.714,1.006-3.708h-3.896l-3.797,18.996h4.089l1.835-9.173c0.756-3.783,3.461-6.804,6.327-6.804
		c2.179,0,2.553,1.375,2.079,3.746l-2.443,12.23H211.65L211.65,208.037z"/>
	<path fill-rule="evenodd" clip-rule="evenodd" d="M231.898,208.037c0.245-1.605,0.597-3.555,0.926-5.2l1.55-7.756
		c0.78-3.899-0.322-6.422-6.132-6.422c-2.445,0-4.922,0.536-6.939,1.262l-0.313,3.479c1.803-0.994,4.205-1.53,5.962-1.53
		c2.98,0,3.729,1.225,3.256,3.594l-0.244,1.223c-6.842,0-11.702,2.523-12.573,6.88c-0.604,3.021,1.095,4.854,4.342,4.854
		c3.021,0,5.725-1.683,7.096-3.937l0.028,0.037c-0.358,1.032-0.648,2.294-0.894,3.518H231.898L231.898,208.037z M229.34,199.82
		c-0.545,2.712-2.951,5.389-5.743,5.389c-1.604,0-2.415-0.918-2.132-2.331c0.328-1.646,1.987-3.441,7.949-3.441L229.34,199.82
		L229.34,199.82z"/>
	<polygon points="243.029,208.037 248.605,180.137 244.516,180.137 238.939,208.037 243.029,208.037 	"/>
</g>
<g>
	<g>
		<defs>
			<path id="SVGID_1_" d="M168.783,41.896c0,0,3.64-3.253,6.533-5.092c0,0,1.426-0.871,1.441-2.597c0,0,0.072-1.653-1.869-3.271
				c0,0-0.597-0.551-1.02-1.259c0,0-0.65-1.147,0.133-2.853c0,0,0.625-1.291,1.955-1.761c0,0,0.623-0.258,2.215-0.652
				c0,0,0.976-0.138,1.527-0.602c0.63-0.553,0.689-1.71,0.354-2.5c0,0-0.455-1.278-3.364-1.459c0,0-1.952-0.279-4.577,0.328
				c0,0-1.93,0.362-4.567,1.459c-1.571,0.843-26.739,10.591-43.286,59.446c0,0-7.228,22.567-7.857,46.599
				c0,0-1.031,16.791,4.484,25.974c0,0,0.797,1.459,2.612,2.871c0,0,1.522,1.3,3.119-0.107c0,0,1.603-1.251-0.049-3.846
				c0,0-0.256-0.392-0.57-1.345c0,0-0.392-1.493,0.196-2.884c0,0,0.704-2.326,3.56-2.637c0,0,2.887,0.078,4.261-1.684
				c0,0,1.346-1.91,0.896-4.678c0,0-0.334-3.555-0.654-8.237c-0.486-8.351,0.023-15.789,2.091-26.746c0,0,3.001-14.574,5.997-21.938
				C145.342,75.063,150.93,59.023,168.783,41.896z M190.93,50.188c0,0-1.195-1.91,0.623-4.317c0,0,1.092-1.21,3.107-1.554
				c0,0,0.537-0.086,1.18-0.197c0,0,2.256-0.353,2.18-2.861c0,0,0.045-2.163-3.28-2.485c0,0-3.06-0.293-6.409,1.2
				c0,0-6.912,2.73-16.572,12.66c-7.321,7.553-16.453,23.235-21.545,40.005c-5.184,17.07-7.382,32.939-4.762,49.362
				c0,0,1.5,8.021,5.828,11.004c0,0,1.451,1.048,2.914,0.542c0,0,0.809-0.369,1.109-0.885c0.342-0.548,0.694-1.641-0.017-2.651
				c0,0-0.222-0.358-0.544-0.85c0,0-0.713-1.086-0.867-2.375c0,0-0.417-2.265,0.631-3.648c0.868-1.302,2.125-1.641,2.125-1.641
				c21.877-7.199,40.576-29.046,42.369-56.113C199.71,71.85,197.496,60.85,190.93,50.188z M124.173,53.069
				c7.284-13.231,19.417-24.835,22.884-27.818c2.375-2.187,2.032-4.133,2.032-4.133c-0.494-2.059-4.521-3.355-9.682-3.749
				c-35.479-1.86-67.03,25.414-67.94,60.931c-0.297,11.607,1.446,20.127,5.563,28.771c1.261,2.579,4.178,1.837,4.491-0.292
				c0.833-16.311,6.395-36.618,12-46.624c3.754-6.273,7.607-12.615,12.532-8.468c2.02,2.144-1.055,5.837-4.302,12.829
				c-5.592,12.646-7.904,23.879-9.553,32.024c-1.733,10.011-2.319,20.48-1.508,29.185c0.739,12.763,6.38,20.778,9.918,18.318
				c2.296-1.948-1.42-3.853-0.306-6.249c0,0,0.689-1.379,2.263-1.382c0,0,0.603,0.107,1.873,0.02
				c2.303-0.141,1.776-3.918,1.776-3.918c-1.228-13.366,1.462-30.054,1.462-30.054C110.547,83.217,116.89,66.301,124.173,53.069z"/>
		</defs>
		<clipPath id="SVGID_2_">
			<use xlink:href="#SVGID_1_"  overflow="visible"/>
		</clipPath>
		<radialGradient id="SVGID_3_" cx="148.7686" cy="38.4619" r="121.3326" gradientUnits="userSpaceOnUse">
			<stop  offset="0" style="stop-color:#C7EAFB"/>
			<stop  offset="0.25" style="stop-color:#00BCE4"/>
			<stop  offset="0.48" style="stop-color:#0081C6"/>
			<stop  offset="0.5008" style="stop-color:#007FB9"/>
			<stop  offset="0.5826" style="stop-color:#007791"/>
			<stop  offset="0.6563" style="stop-color:#007274"/>
			<stop  offset="0.7194" style="stop-color:#006E5F"/>
			<stop  offset="0.7694" style="stop-color:#006B52"/>
			<stop  offset="0.8" style="stop-color:#006A4E"/>
			<stop  offset="1" style="stop-color:#005C39"/>
		</radialGradient>
		<path clip-path="url(#SVGID_2_)" fill="url(#SVGID_3_)" d="M27.537,38.666c0-67.296,54.342-121.638,121.196-121.638
			C215.658-82.972,270-28.63,270,38.666c0,66.889-54.342,121.229-121.268,121.229C81.878,159.896,27.537,105.555,27.537,38.666z"/>
	</g>
	<g>
		<path d="M191.238,132.987c3.442,0,6.186,2.797,6.186,6.296c0,3.554-2.743,6.326-6.213,6.326c-3.443,0-6.241-2.772-6.241-6.326
			c0-3.499,2.798-6.296,6.241-6.296H191.238z M191.211,133.967c-2.771,0-5.037,2.377-5.037,5.316c0,2.995,2.266,5.344,5.064,5.344
			c2.799,0.029,5.038-2.349,5.038-5.316c0-2.967-2.239-5.344-5.038-5.344H191.211z M190.036,142.949h-1.12v-7.024
			c0.587-0.083,1.148-0.168,1.986-0.168c1.063,0,1.764,0.224,2.185,0.532c0.417,0.308,0.644,0.784,0.644,1.455
			c0,0.924-0.617,1.483-1.373,1.707v0.057c0.615,0.111,1.037,0.671,1.177,1.706c0.169,1.092,0.335,1.512,0.446,1.735h-1.174
			c-0.169-0.224-0.336-0.868-0.477-1.792c-0.168-0.895-0.615-1.23-1.512-1.23h-0.782V142.949z M190.036,139.059h0.812
			c0.924,0,1.706-0.335,1.706-1.203c0-0.616-0.446-1.231-1.706-1.231c-0.364,0-0.615,0.029-0.812,0.057V139.059z"/>
	</g>
</g>
</svg>
