<svg xmlns="http://www.w3.org/2000/svg" fill="none" viewBox="0 0 170 170" id="Youtube-Logo--Streamline-Logos-Block.svg" height="170" width="170"><desc>Youtube Logo Streamline Icon: https://streamlinehq.com</desc><path fill="#000000" fill-rule="evenodd" d="M7.083333333333333 35.416666666666664a28.333333333333332 28.333333333333332 0 0 1 28.333333333333332 -28.333333333333332h99.16666666666666a28.333333333333332 28.333333333333332 0 0 1 28.333333333333332 28.333333333333332v99.16666666666666a28.333333333333332 28.333333333333332 0 0 1 -28.333333333333332 28.333333333333332H35.416666666666664a28.333333333333332 28.333333333333332 0 0 1 -28.333333333333332 -28.333333333333332V35.416666666666664Zm45.45375 -0.2833333333333333 6.530833333333334 -3.2583333333333333 6.467083333333333 12.934166666666666 6.467083333333333 -12.934166666666666 6.530833333333334 3.2583333333333333 -9.35 18.7v16.171249999999997h-7.295833333333333V53.83333333333333l-9.35 -18.7Zm40.97708333333333 5.666666666666667v20.683333333333334c0 3.25125 1.0625 5.6525 2.9041666666666663 7.118749999999999a6.637083333333334 6.637083333333334 0 0 0 2.3941666666666666 1.2041666666666666c1.5016666666666665 0.39666666666666667 3.045833333333333 0.12749999999999997 4.434166666666666 -0.5241666666666667v0.7224999999999999h7.295833333333333V40.8h-7.295833333333333l0 18.204166666666666 0 0.014166666666666666s0.11333333333333333 3.194583333333333 -1.7141666666666666 3.194583333333333c-0.33999999999999997 0 -0.7154166666666667 -0.43916666666666665 -0.7154166666666667 -0.7366666666666666V40.8h-7.295833333333333Zm-10.950833333333334 0c-4.703333333333333 0 -8.514166666666666 3.825 -8.514166666666666 8.52125V61.48333333333333a8.514166666666666 8.514166666666666 0 1 0 17.035416666666663 0V49.32125c0 -4.703333333333333 -3.8179166666666666 -8.514166666666666 -8.52125 -8.514166666666666Zm-1.21125 8.52125a1.2183333333333333 1.2183333333333333 0 0 1 2.4295833333333334 0V61.48333333333333a1.2183333333333333 1.2183333333333333 0 1 1 -2.4295833333333334 0V49.32125Zm41.12583333333333 27.780833333333334c-9.087916666666665 -0.9208333333333333 -25.01125 -2.2312499999999997 -37.477916666666665 -2.2312499999999997 -12.466666666666667 0 -28.39 1.3104166666666666 -37.47083333333333 2.2312499999999997a4.958333333333333 4.958333333333333 0 0 0 -4.405833333333333 4.193333333333333c-0.8641666666666666 5.539166666666667 -1.9125 14.322499999999998 -1.9125 22.5675 0 8.662916666666668 1.1545833333333333 20.300833333333333 2.047083333333333 27.5825a5.064583333333333 5.064583333333333 0 0 0 4.490833333333333 4.4624999999999995c9.116249999999999 0.9208333333333333 24.89083333333333 2.217083333333333 37.25125 2.217083333333333 12.360416666666667 0 28.134999999999998 -1.2891666666666666 37.25833333333333 -2.21a5.057499999999999 5.057499999999999 0 0 0 4.48375 -4.4695833333333335c0.8925 -7.281666666666666 2.0541666666666663 -18.912499999999998 2.0541666666666663 -27.5825 0 -8.245 -1.0554166666666667 -17.028333333333332 -1.9195833333333334 -22.5675a4.958333333333333 4.958333333333333 0 0 0 -4.39875 -4.193333333333333Zm-67.89375 16.008333333333333h-3.6479166666666667v-7.295833333333333h14.598749999999999v7.295833333333333h-3.6479166666666667v30.415833333333328h-7.295833333333333v-30.40875Zm29.197499999999998 -6.0775v36.49333333333333h7.295833333333333v-0.36124999999999996c0.7508333333333332 0.22666666666666666 1.5654166666666667 0.36124999999999996 2.450833333333333 0.36124999999999996a6.941666666666666 6.941666666666666 0 0 0 4.257083333333333 -1.3741666666666668 7.154166666666667 7.154166666666667 0 0 0 2.2312499999999997 -2.9041666666666663c0.7791666666666667 -1.80625 0.8075 -3.6125 0.8004166666666667 -4.14375v-9.916666666666666c0 -0.53125 -0.021249999999999998 -2.3375 -0.8004166666666667 -4.136666666666666a7.196666666666666 7.196666666666666 0 0 0 -2.2312499999999997 -2.9041666666666663 6.941666666666666 6.941666666666666 0 0 0 -4.257083333333333 -1.38125c-0.8854166666666666 0 -1.7 0.14166666666666666 -2.4437499999999996 0.36124999999999996v-10.09375h-7.295833333333333Zm27.979166666666668 9.7325c-4.703333333333333 0 -8.514166666666666 3.8108333333333335 -8.514166666666666 8.514166666666666v9.7325a8.514166666666666 8.514166666666666 0 0 0 17.028333333333332 0h-7.295833333333333a1.2183333333333333 1.2183333333333333 0 0 1 -2.4295833333333334 0v-2.4295833333333334h9.725416666666666v-7.295833333333333c0 -4.710416666666667 -3.8108333333333335 -8.52125 -8.514166666666666 -8.52125Zm0 7.295833333333333c0.6729166666666666 0 1.2183333333333333 0.5454166666666667 1.2183333333333333 1.2183333333333333h-2.4295833333333334c0 -0.6729166666666666 0.5383333333333333 -1.2183333333333333 1.21125 -1.2183333333333333Zm-20.683333333333334 10.022916666666667v-7.876666666666667a7.083333333333333 7.083333333333333 0 0 1 0.7224999999999999 -0.9916666666666667c0.6729166666666666 -0.7933333333333333 1.2041666666666666 -1.0766666666666667 1.5654166666666667 -1.1333333333333333a3.0316666666666663 3.0316666666666663 0 0 1 0.15583333333333332 1.0341666666666665l0 0.10625 0 0.18416666666666665v9.477500000000001l0 0.18416666666666665 0 0.10625a3.825 3.825 0 0 1 -0.14875 1.04125c-0.3683333333333333 -0.07083333333333333 -0.8995833333333333 -0.3541666666666667 -1.5725 -1.1333333333333333a8.103333333333332 8.103333333333332 0 0 1 -0.7154166666666667 -0.9916666666666667Zm-26.760833333333334 0.9279166666666666v-18.246666666666666h7.295833333333333v18.246666666666666c0 0.2975 0.021249999999999998 0.5383333333333333 0.042499999999999996 0.7366666666666666 0.31875 -0.24791666666666667 0.65875 -0.5666666666666667 0.9916666666666667 -0.9491666666666667 0.49583333333333335 -0.5383333333333333 0.8854166666666666 -1.1120833333333333 1.1404166666666666 -1.615a2.8333333333333335 2.8333333333333335 0 0 0 0.26208333333333333 -0.6375l0 -15.781666666666668h7.295833333333333v26.760833333333334h-7.295833333333333v-0.7224999999999999c-0.8641666666666666 0.41083333333333333 -1.9125 0.7224999999999999 -3.0316666666666663 0.7224999999999999l-0.53125 -0.035416666666666666a6.516666666666667 6.516666666666667 0 0 1 -3.2583333333333333 -1.3670833333333332c-1.8416666666666666 -1.4662499999999998 -2.9041666666666663 -3.8675 -2.9041666666666663 -7.111666666666666Z" clip-rule="evenodd" stroke-width="1"></path></svg>