<svg width="52" height="52" viewBox="0 0 52 52" fill="none" xmlns="http://www.w3.org/2000/svg">
<g filter="url(#filter0_d_142_1038)">
<path d="M2.5 11C2.5 5.75329 6.75329 1.5 12 1.5H40C45.2467 1.5 49.5 5.75329 49.5 11V39C49.5 44.2467 45.2467 48.5 40 48.5H12C6.75329 48.5 2.5 44.2467 2.5 39V11Z" stroke="#EAECF0" shape-rendering="crispEdges"/>
<path d="M21 24V21C21 18.2386 23.2386 16 26 16C28.419 16 30.4367 17.7178 30.9 20M21.8 34H30.2C31.8802 34 32.7202 34 33.362 33.673C33.9265 33.3854 34.3854 32.9265 34.673 32.362C35 31.7202 35 30.8802 35 29.2V28.8C35 27.1198 35 26.2798 34.673 25.638C34.3854 25.0735 33.9265 24.6146 33.362 24.327C32.7202 24 31.8802 24 30.2 24H21.8C20.1198 24 19.2798 24 18.638 24.327C18.0735 24.6146 17.6146 25.0735 17.327 25.638C17 26.2798 17 27.1198 17 28.8V29.2C17 30.8802 17 31.7202 17.327 32.362C17.6146 32.9265 18.0735 33.3854 18.638 33.673C19.2798 34 20.1198 34 21.8 34Z" stroke="#344054" stroke-width="2" stroke-linecap="round" stroke-linejoin="round"/>
</g>
<defs>
<filter id="filter0_d_142_1038" x="0" y="0" width="52" height="52" filterUnits="userSpaceOnUse" color-interpolation-filters="sRGB">
<feFlood flood-opacity="0" result="BackgroundImageFix"/>
<feColorMatrix in="SourceAlpha" type="matrix" values="0 0 0 0 0 0 0 0 0 0 0 0 0 0 0 0 0 0 127 0" result="hardAlpha"/>
<feOffset dy="1"/>
<feGaussianBlur stdDeviation="1"/>
<feComposite in2="hardAlpha" operator="out"/>
<feColorMatrix type="matrix" values="0 0 0 0 0.0627451 0 0 0 0 0.0941176 0 0 0 0 0.156863 0 0 0 0.05 0"/>
<feBlend mode="normal" in2="BackgroundImageFix" result="effect1_dropShadow_142_1038"/>
<feBlend mode="normal" in="SourceGraphic" in2="effect1_dropShadow_142_1038" result="shape"/>
</filter>
</defs>
</svg>
