<svg width="52" height="52" viewBox="0 0 52 52" fill="none" xmlns="http://www.w3.org/2000/svg">
<g filter="url(#filter0_d_142_122)">
<path d="M2.5 11C2.5 5.75329 6.75329 1.5 12 1.5H40C45.2467 1.5 49.5 5.75329 49.5 11V39C49.5 44.2467 45.2467 48.5 40 48.5H12C6.75329 48.5 2.5 44.2467 2.5 39V11Z" stroke="#EAECF0" shape-rendering="crispEdges"/>
<path opacity="0.12" d="M16 26V33C16 34.1046 16.8954 35 18 35H21V24H18C16.8954 24 16 24.8954 16 26Z" fill="black"/>
<path d="M21 35V24M16 26V33C16 34.1046 16.8954 35 18 35H31.4262C32.907 35 34.1662 33.9197 34.3914 32.4562L35.4683 25.4562C35.7479 23.6389 34.3418 22 32.5032 22H29C28.4477 22 28 21.5523 28 21V17.4658C28 16.104 26.896 15 25.5342 15C25.2093 15 24.915 15.1913 24.7831 15.4881L21.2639 23.4061C21.1034 23.7673 20.7453 24 20.3501 24H18C16.8954 24 16 24.8954 16 26Z" stroke="#344054" stroke-width="2" stroke-linecap="round" stroke-linejoin="round"/>
</g>
<defs>
<filter id="filter0_d_142_122" x="0" y="0" width="52" height="52" filterUnits="userSpaceOnUse" color-interpolation-filters="sRGB">
<feFlood flood-opacity="0" result="BackgroundImageFix"/>
<feColorMatrix in="SourceAlpha" type="matrix" values="0 0 0 0 0 0 0 0 0 0 0 0 0 0 0 0 0 0 127 0" result="hardAlpha"/>
<feOffset dy="1"/>
<feGaussianBlur stdDeviation="1"/>
<feComposite in2="hardAlpha" operator="out"/>
<feColorMatrix type="matrix" values="0 0 0 0 0.0627451 0 0 0 0 0.0941176 0 0 0 0 0.156863 0 0 0 0.05 0"/>
<feBlend mode="normal" in2="BackgroundImageFix" result="effect1_dropShadow_142_122"/>
<feBlend mode="normal" in="SourceGraphic" in2="effect1_dropShadow_142_122" result="shape"/>
</filter>
</defs>
</svg>
