<svg width="52" height="52" viewBox="0 0 52 52" fill="none" xmlns="http://www.w3.org/2000/svg">
<g filter="url(#filter0_d_142_22)">
<path d="M2.5 11C2.5 5.75329 6.75329 1.5 12 1.5H40C45.2467 1.5 49.5 5.75329 49.5 11V39C49.5 44.2467 45.2467 48.5 40 48.5H12C6.75329 48.5 2.5 44.2467 2.5 39V11Z" stroke="#EAECF0" shape-rendering="crispEdges"/>
<path d="M35 34H18.6C18.0399 34 17.7599 34 17.546 33.891C17.3578 33.7951 17.2049 33.6422 17.109 33.454C17 33.2401 17 32.9601 17 32.4V16M35 20L29.5657 25.4343C29.3677 25.6323 29.2687 25.7313 29.1545 25.7684C29.0541 25.8011 28.9459 25.8011 28.8455 25.7684C28.7313 25.7313 28.6323 25.6323 28.4343 25.4343L26.5657 23.5657C26.3677 23.3677 26.2687 23.2687 26.1545 23.2316C26.0541 23.1989 25.9459 23.1989 25.8455 23.2316C25.7313 23.2687 25.6323 23.3677 25.4343 23.5657L21 28M35 20H31M35 20V24" stroke="#344054" stroke-width="2" stroke-linecap="round" stroke-linejoin="round"/>
</g>
<defs>
<filter id="filter0_d_142_22" x="0" y="0" width="52" height="52" filterUnits="userSpaceOnUse" color-interpolation-filters="sRGB">
<feFlood flood-opacity="0" result="BackgroundImageFix"/>
<feColorMatrix in="SourceAlpha" type="matrix" values="0 0 0 0 0 0 0 0 0 0 0 0 0 0 0 0 0 0 127 0" result="hardAlpha"/>
<feOffset dy="1"/>
<feGaussianBlur stdDeviation="1"/>
<feComposite in2="hardAlpha" operator="out"/>
<feColorMatrix type="matrix" values="0 0 0 0 0.0627451 0 0 0 0 0.0941176 0 0 0 0 0.156863 0 0 0 0.05 0"/>
<feBlend mode="normal" in2="BackgroundImageFix" result="effect1_dropShadow_142_22"/>
<feBlend mode="normal" in="SourceGraphic" in2="effect1_dropShadow_142_22" result="shape"/>
</filter>
</defs>
</svg>
