<svg width="32" height="32" viewBox="0 0 32 32" fill="none" xmlns="http://www.w3.org/2000/svg">
<path d="M0 16C0 7.16344 7.16344 0 16 0C24.8366 0 32 7.16344 32 16C32 24.8366 24.8366 32 16 32C7.16344 32 0 24.8366 0 16Z" fill="#F4EBFF"/>
<path d="M14.1423 17.6667C14.3504 18.063 14.766 18.3333 15.2448 18.3333H16.667C17.4034 18.3333 18.0003 17.7364 18.0003 17C18.0003 16.2636 17.4034 15.6667 16.667 15.6667H15.3337C14.5973 15.6667 14.0003 15.0697 14.0003 14.3333C14.0003 13.5969 14.5973 13 15.3337 13H16.7559C17.2346 13 17.6502 13.2703 17.8584 13.6667M16.0003 12V13M16.0003 18.3333V19.3333M21.3337 16C21.3337 19.2723 17.7644 21.6523 16.4657 22.4099C16.3181 22.496 16.2443 22.5391 16.1401 22.5614C16.0593 22.5787 15.9414 22.5787 15.8605 22.5614C15.7564 22.5391 15.6826 22.496 15.535 22.4099C14.2363 21.6523 10.667 19.2723 10.667 16V12.8117C10.667 12.2787 10.667 12.0122 10.7542 11.7831C10.8312 11.5808 10.9563 11.4002 11.1188 11.257C11.3027 11.095 11.5522 11.0014 12.0513 10.8142L15.6258 9.47378C15.7644 9.4218 15.8337 9.39582 15.905 9.38552C15.9682 9.37638 16.0324 9.37638 16.0957 9.38552C16.167 9.39582 16.2363 9.4218 16.3749 9.47378L19.9494 10.8142C20.4485 11.0014 20.698 11.095 20.8819 11.257C21.0443 11.4002 21.1695 11.5808 21.2465 11.7831C21.3337 12.0122 21.3337 12.2787 21.3337 12.8117V16Z" stroke="#7F56D9" stroke-width="1.33333" stroke-linecap="round" stroke-linejoin="round"/>
</svg>
