<svg width="16" height="16" viewBox="0 0 16 16" fill="none" xmlns="http://www.w3.org/2000/svg">
<path d="M1.3335 4.66663L6.77678 8.47692C7.21756 8.78547 7.43795 8.93974 7.67767 8.9995C7.88943 9.05228 8.1109 9.05228 8.32265 8.9995C8.56238 8.93974 8.78277 8.78547 9.22355 8.47692L14.6668 4.66663M4.5335 13.3333H11.4668C12.5869 13.3333 13.147 13.3333 13.5748 13.1153C13.9511 12.9236 14.2571 12.6176 14.4488 12.2413C14.6668 11.8135 14.6668 11.2534 14.6668 10.1333V5.86663C14.6668 4.74652 14.6668 4.18647 14.4488 3.75865C14.2571 3.38232 13.9511 3.07636 13.5748 2.88461C13.147 2.66663 12.5869 2.66663 11.4668 2.66663H4.5335C3.41339 2.66663 2.85334 2.66663 2.42552 2.88461C2.04919 3.07636 1.74323 3.38232 1.55148 3.75865C1.3335 4.18647 1.3335 4.74652 1.3335 5.86663V10.1333C1.3335 11.2534 1.3335 11.8135 1.55148 12.2413C1.74323 12.6176 2.04919 12.9236 2.42552 13.1153C2.85334 13.3333 3.41339 13.3333 4.5335 13.3333Z" stroke="#667085" stroke-width="1.33333" stroke-linecap="round" stroke-linejoin="round"/>
</svg>
