<svg width="16" height="16" viewBox="0 0 16 16" fill="none" xmlns="http://www.w3.org/2000/svg">
<g id="shield-dollar">
<path id="Icon" d="M6.1423 9.66666C6.35044 10.063 6.76603 10.3333 7.24477 10.3333H8.66699C9.40337 10.3333 10.0003 9.73638 10.0003 9C10.0003 8.26362 9.40337 7.66666 8.66699 7.66666H7.33366C6.59728 7.66666 6.00033 7.06971 6.00033 6.33333C6.00033 5.59695 6.59728 5 7.33366 5H8.75588C9.23462 5 9.65021 5.27032 9.85835 5.66666M8.00033 4V5M8.00033 10.3333V11.3333M13.3337 8C13.3337 11.2723 9.76435 13.6523 8.46565 14.4099C8.31806 14.496 8.24426 14.5391 8.14011 14.5614C8.05929 14.5787 7.94136 14.5787 7.86054 14.5614C7.75639 14.5391 7.68259 14.496 7.535 14.4099C6.2363 13.6523 2.66699 11.2723 2.66699 8V4.81173C2.66699 4.27872 2.66699 4.01222 2.75417 3.78313C2.83118 3.58076 2.95631 3.40018 3.11876 3.25702C3.30266 3.09495 3.55219 3.00138 4.05126 2.81423L7.62579 1.47378C7.76439 1.4218 7.83369 1.39582 7.90498 1.38552C7.96822 1.37638 8.03243 1.37638 8.09567 1.38552C8.16696 1.39582 8.23626 1.4218 8.37486 1.47378L11.9494 2.81423C12.4485 3.00138 12.698 3.09495 12.8819 3.25702C13.0443 3.40018 13.1695 3.58076 13.2465 3.78313C13.3337 4.01222 13.3337 4.27872 13.3337 4.81173V8Z" stroke="#7F56D9" stroke-width="1.33333" stroke-linecap="round" stroke-linejoin="round"/>
</g>
</svg>
