<svg width="166" height="40" viewBox="0 0 166 40" fill="none" xmlns="http://www.w3.org/2000/svg">
<g clip-path="url(#clip0_136_16)">
<path d="M27.2613 28.4021V10.3218C27.2613 9.38119 27.4697 8.67574 27.9125 8.20545C28.3293 7.73515 28.9023 7.5 29.5796 7.5C30.2828 7.5 30.8559 7.73515 31.2726 8.20545C31.7155 8.67574 31.9238 9.38119 31.9238 10.3218V28.4021C31.9238 29.3427 31.7155 30.0743 31.2726 30.5446C30.8298 31.0149 30.2828 31.25 29.5796 31.25C28.9023 31.25 28.3553 31.0149 27.9386 30.5446C27.4958 30.0481 27.2613 29.3427 27.2613 28.4021Z" fill="white"/>
<path d="M153.305 31.2239C146.793 31.2239 141.48 25.8938 141.48 19.3619C141.48 12.83 146.793 7.5 153.305 7.5C159.817 7.5 165.131 12.83 165.131 19.3619C165.131 25.92 159.843 31.2239 153.305 31.2239ZM153.305 12.3075C149.424 12.3075 146.273 15.4689 146.273 19.3619C146.273 23.2549 149.424 26.4164 153.305 26.4164C157.186 26.4164 160.338 23.2549 160.338 19.3619C160.338 15.495 157.186 12.3075 153.305 12.3075Z" fill="white"/>
<path d="M100.246 31.2239C93.7346 31.2239 88.4209 25.8938 88.4209 19.3619C88.4209 12.83 93.7346 7.5 100.246 7.5C106.758 7.5 112.072 12.83 112.072 19.3619C112.072 25.92 106.758 31.2239 100.246 31.2239ZM100.246 12.3075C96.3654 12.3075 93.2136 15.4689 93.2136 19.3619C93.2136 23.2549 96.3654 26.4164 100.246 26.4164C104.128 26.4164 107.279 23.2549 107.279 19.3619C107.279 15.495 104.128 12.3075 100.246 12.3075Z" fill="white"/>
<path d="M137.703 19.3619C137.703 16.7492 136.843 14.3193 135.411 12.3597C133.327 9.51183 129.993 7.63064 126.216 7.5C126.086 7.5 125.981 7.5 125.851 7.5H119.912C118.896 7.5 118.167 7.73515 117.724 8.20545C117.281 8.67574 117.047 9.40732 117.047 10.4524V28.2976C117.047 29.3427 117.281 30.0743 117.724 30.5446C118.167 31.0149 118.922 31.25 119.912 31.25H125.851C125.981 31.25 126.086 31.25 126.216 31.25C129.993 31.1455 133.301 29.2643 135.411 26.3903C136.843 24.4046 137.703 21.9747 137.703 19.3619ZM126.711 26.3641C126.138 26.3903 125.513 26.4164 124.861 26.4164H121.762V12.3075H124.861C125.513 12.3075 126.138 12.3075 126.711 12.3597C128.768 12.5949 130.54 13.7445 131.66 15.3644C132.441 16.4879 132.91 17.8727 132.91 19.3619C132.91 20.8512 132.441 22.2098 131.66 23.3333C130.54 25.0055 128.768 26.129 126.711 26.3641Z" fill="white"/>
<path d="M81.7266 7.60445C80.867 7.34317 79.9293 7.68283 79.4344 8.44053L72.2974 19.3357L65.1604 8.44053C64.6655 7.68283 63.7278 7.34317 62.8682 7.60445C62.0087 7.86572 61.4096 8.70181 61.4096 9.61627V28.9768C61.4096 30.1264 62.3212 31.0932 63.4673 31.0932C64.5874 31.0932 65.5251 30.1526 65.5251 28.9768V16.514L70.5783 24.2477C70.5783 24.2477 70.5783 24.2477 70.5783 24.2739C70.5783 24.2739 70.5783 24.3 70.6043 24.3C70.6304 24.3522 70.6564 24.4045 70.7085 24.4306C70.7346 24.4568 70.7346 24.4568 70.7606 24.4829C70.7867 24.509 70.8127 24.5613 70.8388 24.5874C70.8648 24.6135 70.8909 24.6396 70.9169 24.6658C70.9429 24.6919 70.969 24.6919 70.969 24.718C71.0211 24.7442 71.0471 24.7703 71.0992 24.8225L71.1253 24.8487C71.1774 24.8748 71.2295 24.9009 71.2555 24.927C71.2816 24.927 71.2816 24.9532 71.2816 24.9532C71.3076 24.9793 71.3597 24.9793 71.3858 25.0054C71.5941 25.1099 71.8025 25.1622 72.0369 25.1883C72.089 25.1883 72.1151 25.1883 72.1672 25.1883C72.1932 25.1883 72.2193 25.1883 72.2453 25.1883C72.2714 25.1883 72.2974 25.1883 72.3235 25.1883C72.3756 25.1883 72.4016 25.1883 72.4537 25.1883C72.6621 25.1622 72.8965 25.1099 73.1049 25.0054C73.1309 24.9793 73.183 24.9793 73.2091 24.9532L73.2351 24.927C73.2872 24.9009 73.3393 24.8748 73.3654 24.8487C73.3914 24.8487 73.3914 24.8225 73.3914 24.8225C73.4435 24.7964 73.4696 24.7703 73.5217 24.718C73.5477 24.6919 73.5738 24.6919 73.5738 24.6658C73.5998 24.6396 73.6258 24.6135 73.6519 24.5874C73.6779 24.5613 73.704 24.5351 73.73 24.4829C73.7561 24.4568 73.7561 24.4568 73.7821 24.4306C73.8082 24.3784 73.8603 24.3522 73.8863 24.3L73.9124 24.2739C73.9124 24.2739 73.9124 24.2739 73.9124 24.2477L78.9656 16.514V28.9768C78.9656 30.1264 79.8772 31.0932 81.0233 31.0932C82.1434 31.0932 83.0811 30.1526 83.0811 28.9768V9.61627C83.1853 8.70181 82.5862 7.86572 81.7266 7.60445Z" fill="white"/>
<path d="M54.4288 30.5184H39.0869C38.2794 30.5184 37.3938 30.022 37.0552 29.2382C36.7165 28.4543 36.6644 27.3831 37.3677 26.5209L49.8966 11.9156H39.5297C38.4096 11.9156 37.4719 10.9227 37.4719 9.72085C37.4719 8.51898 38.3836 7.76128 39.5297 7.76128H53.4911C54.2986 7.76128 55.1321 7.89191 55.8615 8.70187C56.5387 9.43344 56.4866 11.0272 55.7573 11.9678L43.6452 26.129H54.4288C55.5749 26.129 56.3824 27.1218 56.3824 28.3237C56.3824 29.5256 55.5749 30.5184 54.4288 30.5184Z" fill="white"/>
<path d="M11.9974 31.2239C8.58521 31.2239 5.5116 29.8652 3.29756 27.4092C1.37004 25.2668 0.25 22.4189 0.25 19.5971C0.25 10.7921 7.54331 7.5 12.1537 7.5C16.686 7.5 19.994 9.72085 20.1503 9.82536C21.1662 10.5308 21.4527 11.9156 20.7494 12.9607C20.0722 14.0058 18.6917 14.267 17.6758 13.5877C17.6237 13.5616 15.2534 12.0201 12.1537 12.0201C9.26245 12.0201 5.27717 13.9274 5.27717 19.5971C5.27717 22.8108 7.67355 26.6254 12.0495 26.6254C14.524 26.6254 16.2432 25.9722 17.259 25.319V21.9747H13.8729C12.6486 21.9747 11.6588 20.9557 11.6588 19.7277C11.6588 18.4736 12.6486 17.4807 13.8729 17.4807H19.5252C20.7494 17.4807 21.7392 18.4997 21.7392 19.7277V26.4425C21.7392 27.0434 21.5048 27.6444 21.062 28.0624C19.5773 29.5256 16.2953 31.2239 11.9974 31.2239Z" fill="white"/>
</g>
<defs>
<clipPath id="clip0_136_16">
<rect width="165" height="40" fill="white" transform="translate(0.25)"/>
</clipPath>
</defs>
</svg>
