<svg width="275" height="40" viewBox="0 0 275 40" fill="none" xmlns="http://www.w3.org/2000/svg">
<g clip-path="url(#clip0_136_10)">
<path fill-rule="evenodd" clip-rule="evenodd" d="M5.90439 14.6436C6.44591 13.177 7.1905 12.0263 8.13817 11.1801C8.26226 11.1237 8.39764 11.1012 8.53303 11.0786C8.66841 11.0673 8.99557 11.056 9.52581 11.056C9.81914 11.056 10.0673 11.0786 10.293 11.1125C10.5186 11.1576 10.7442 11.2366 10.9812 11.3494C11.2181 11.4735 11.5001 11.6314 11.816 11.8458L7.78843 15.0498L8.7361 15.8056V26.4781C7.70946 25.9817 6.85205 25.1807 6.28797 24.1879C5.49825 22.8228 5.10339 20.9839 5.10339 18.6937C5.09211 17.4528 5.36287 16.099 5.90439 14.6436ZM5.53209 10.5484C5.76901 10.5484 6.07362 10.5935 6.44591 10.6725C6.81821 10.7514 7.15666 10.8304 7.47255 10.9094C5.26133 11.8909 3.54652 13.5042 2.33938 15.7718C1.29018 17.7686 0.748657 19.9911 0.759938 22.2588C0.759938 25.1581 1.76401 27.6401 3.78343 29.7047C5.80286 31.7692 8.26226 32.8071 11.1504 32.8071C13.937 32.8071 16.3061 31.7354 18.224 29.6031C20.1419 27.4709 21.1121 24.9551 21.1121 22.0557C20.8526 22.6649 20.548 23.1726 20.2209 23.5787C19.8034 24.0751 19.3296 24.5377 18.8219 24.9438C18.4271 25.2822 18.0661 25.5417 17.7502 25.7109C17.4343 25.8802 17.0281 26.072 16.5205 26.2863V12.0488C17.1522 11.7894 17.6599 11.5186 18.0435 11.2366C18.4271 10.9658 18.8445 10.5597 19.2958 10.0294C20.4578 8.7433 21.1008 7.29925 21.2362 5.71981C20.3901 6.27261 19.6342 6.67875 18.9573 6.94951C18.2804 7.20899 17.5245 7.3895 16.6897 7.46847C16.5543 7.46847 16.3738 7.47975 16.1369 7.50232C15.2118 7.50232 13.8354 7.1413 12.0078 6.41928C10.1802 5.69725 8.7361 5.33623 7.67562 5.33623C5.5885 5.33623 3.91881 6.31774 2.65526 8.25819C1.52709 9.99557 0.951727 12.0601 0.951727 14.4631C1.10967 13.7298 1.49325 13.0303 2.10246 12.3647C2.55373 11.8683 3.07269 11.4396 3.64805 11.1012C4.21214 10.7402 4.84391 10.5484 5.53209 10.5484ZM24.7787 32.604L28.2196 28.7683L26.4822 26.9519V16.6743L27.475 16.0087L30.239 18.1071V31.6677C30.239 32.4348 30.1939 33.0892 30.1036 33.6307C30.0247 34.1384 29.8103 34.6235 29.4944 35.0296L28.5242 36.2368C28.0842 36.7783 27.5427 37.207 26.8883 37.5229C28.2083 37.3875 29.2913 37.0942 30.1262 36.6316C30.9723 36.1691 31.841 35.4357 32.7323 34.443C33.3866 33.6984 33.883 32.9651 34.2102 32.2318C34.5486 31.4759 34.763 30.6749 34.8645 29.8626V14.6662L33.6799 14.7452L29.9682 12.2519L27.2832 14.4631L26.4145 13.9893V6.47568L25.6248 4.77215L22.1049 8.21306V27.6965L21.0331 28.9601L24.7787 32.604ZM36.5568 28.2944L42.9196 32.322L48.9666 25.9591L45.6836 28.2944L41.6561 25.4063V22.7213L48.8538 17.3399L44.2734 11.1689L36.9629 16.2682V27.4145L36.5568 28.2944ZM57.7099 8.41613V15.8056C57.1797 15.862 56.751 15.9523 56.4238 16.0877C56.0966 16.2231 55.7469 16.4487 55.3746 16.7646C54.3141 17.5881 53.7952 18.6373 53.7952 19.9234C53.7839 20.3296 53.8403 20.7244 53.9531 21.108C54.3254 20.7921 54.6864 20.5778 55.0362 20.4762C55.3972 20.3747 55.8372 20.3183 56.3674 20.3183C56.6269 20.3183 56.8412 20.3521 56.9992 20.3973C57.1571 20.4537 57.394 20.5552 57.7099 20.7132V27.9786L63.1703 33.4727L68.1906 28.3734L74.2376 33.4727L83.0486 24.9325V10.3115L77.5883 6.12595L73.5607 9.75865L68.0665 6.12595L63.1703 10.2325V7.82948C63.1703 7.03977 62.6062 6.14851 61.4667 5.14445C61.1283 4.90753 60.8011 4.65933 60.4965 4.41114C60.1919 4.16294 60.0114 3.80193 59.9663 3.33938C59.9211 2.96708 59.8986 2.59479 59.8873 2.21121C59.8873 1.31996 60.1919 0.597929 60.8011 0.0789718C60.5755 0.033845 60.3498 0.0112817 60.1242 0C58.9396 0 57.8904 0.496394 56.9879 1.4779C56.0741 2.47069 55.6228 3.56501 55.6228 4.78343C55.6228 4.96394 55.6454 5.22342 55.7018 5.5393C55.9274 6.82542 56.593 7.78436 57.7099 8.41613ZM84.1091 28.4975L89.0053 31.9384L92.5591 28.5765L96.7897 31.5436L100.422 27.6288H99.1589L97.5456 25.9591V14.3841L96.6769 14.5421L92.5704 11.1012L84.786 16.4713V27.8093L84.1091 28.4975ZM107.688 11.8683C107.191 11.6314 106.718 11.3268 106.289 10.9771L99.8471 15.5236V23.1951L100.445 23.669H104.281L99.3055 32.322C100.073 31.6677 100.659 31.2277 101.088 31.0133C101.686 30.72 102.352 30.5733 103.028 30.5733C103.875 30.5733 104.552 30.6749 105.082 30.8667C105.612 31.0585 106.154 31.4082 106.706 31.9159L113.024 26.9406V19.1563L112.55 18.6825H108.32V18.2876L112.076 11.6878C111.682 11.9247 111.366 12.0601 111.129 12.1052C110.745 12.1504 110.362 12.1729 109.978 12.1616H109.143C108.636 12.1729 108.139 12.0714 107.688 11.8683ZM117.706 32.0512L121.181 28.1816L119.443 26.3653V16.0877L120.391 15.4108L123.2 17.543V31.0585C123.211 31.7128 123.166 32.3671 123.065 33.0215C122.975 33.5292 122.76 34.003 122.41 34.4204C122.196 34.6799 121.914 35.0635 121.542 35.5711C121.068 36.1239 120.493 36.5752 119.838 36.9137C121.045 36.8121 122.128 36.5188 123.065 36.0337C124.001 35.5486 124.881 34.8265 125.693 33.8789C126.303 33.1681 126.776 32.4235 127.115 31.6451C127.453 30.8667 127.679 30.0657 127.792 29.2534V14.0683L126.641 14.1924L122.884 11.6991L120.199 13.8765L119.331 13.4026V5.92288L118.575 4.1855L115.021 7.62641V27.155L113.949 28.3734L117.706 32.0512ZM136.716 8.69817L133.162 5.81006L130.274 8.96893L133.275 11.6991L136.716 8.69817ZM131.142 17.622V28.3734L130.387 29.5242H131.729L134.809 32.1302L138.047 29.1631L142.199 32.5251L145.831 28.4975L144.681 27.0422V16.9676L145.628 16.4938L147.727 18.784V28.6555L151.404 31.8595L154.958 27.8319H153.3L152.352 26.2863V15.5349L152.826 14.5421L151.878 14.7452L148.246 11.857L144.692 15.5349L140.54 12.2519L137.099 16.0877H138.442L139.592 17.4302V27.3017L137.302 28.0914L135.836 26.9406V15.8733L136.309 15.1964L132.203 12.1504L128.841 15.7041L129.992 16.0651L131.142 17.622ZM202.206 28.0237L201.066 26.5571V16.4825L202.014 16.0087L204.112 18.2989V28.2155L207.79 31.3743L211.344 27.3468H209.686L208.738 25.8012V15.0498L209.212 14.1021L208.264 14.26L204.631 11.3719L201.078 15.0498L196.926 11.7668L193.485 15.6026H194.828L195.978 16.9451V26.8617L194.557 28.757L198.945 31.6451L202.206 28.0237ZM155.725 28.1027C156.256 28.1027 156.729 28.1703 157.169 28.3057C157.609 28.4411 158.027 28.6667 158.455 28.9939C158.873 29.3211 159.189 29.637 159.381 29.9416C159.572 30.2462 159.742 30.6636 159.877 31.1826L157.824 33.8338L155.646 36.7557C156.199 36.4398 156.673 36.248 157.068 36.1803C157.463 36.1127 158.038 36.0788 158.805 36.0788C159.696 36.1578 160.464 36.3721 161.095 36.7106C161.727 37.049 162.303 37.568 162.833 38.2562C164.096 37.7823 165.563 36.7219 167.244 35.0973C168.925 33.4615 169.76 32.1189 169.76 31.0697C169.76 30.8892 169.568 30.3139 169.184 29.3775C168.801 28.4185 168.609 27.4032 168.609 26.3653V14.0683L163.115 10.6273L156.199 15.5236V27.2227L155.725 28.1027ZM169.365 14.5872H171.655V28.3057L171.102 29.3775H172.445L175.333 31.5887L179.045 27.3581H177.42L176.348 26.2073V14.858L178.684 11.9699H176.348V4.42242L171.644 8.81099V11.8119L169.365 14.5872ZM179.36 28.1027L184.257 31.5774L192.797 25.6094V13.9893L191.928 14.1924L187.81 10.7176L180.026 16.0877V27.437L179.36 28.1027ZM219.478 8.4951V12.1729C218.79 12.1729 218.215 12.2406 217.741 12.3873C217.267 12.5339 216.816 12.816 216.376 13.2334C215.936 13.6508 215.688 14.1472 215.609 14.7C215.53 15.2528 215.484 15.9749 215.484 16.8774C215.484 17.2497 215.473 17.4979 215.439 17.6333C216.015 16.7082 216.827 16.3246 217.854 16.4825C218.542 16.5841 219.083 16.8774 219.478 17.3512V23.4772C218.271 24.1089 217.211 24.9438 216.319 25.9704C215.315 27.155 214.638 28.3734 214.3 29.6482C214.751 29.2985 215.225 28.9826 215.721 28.7232C216.116 28.5201 216.669 28.3283 217.38 28.1139C217.639 28.035 217.944 27.9447 218.294 27.8545C218.632 27.7642 219.027 27.7191 219.478 27.7191V39.531L224.656 35.3004L226.394 36.5639V29.84L228.605 30.5959L236.074 25.4176V8.02127L231.29 4.1855L226.394 8.29203V6.12595L225.446 5.33623V8.81099L224.656 9.36379V5.73109L220.629 2.63991L215.845 7.34437C216.24 7.10746 216.646 6.98336 217.064 6.98336C217.402 6.98336 217.741 7.03977 218.057 7.1413C218.767 7.41206 219.241 7.86333 219.478 8.4951ZM236.75 28.4975L241.647 31.9384L250.221 25.9704V14.3841L249.352 14.5421L245.2 11.1012L237.416 16.4713V27.8093L236.75 28.4975ZM259.438 11.6991C258.93 11.4509 258.434 11.1576 257.971 10.8304L251.563 15.3318V23.0033L252.116 23.4772H255.952L250.977 32.1302C251.529 31.6564 251.992 31.3067 252.364 31.0585C253.052 30.6072 253.842 30.3816 254.733 30.3816C255.557 30.3816 256.223 30.4831 256.753 30.6749C257.283 30.878 257.825 31.2164 258.377 31.7241L264.706 26.7489V18.9645L264.233 18.4907H260.002V18.0958L263.759 11.496C263.364 11.7329 263.048 11.8683 262.811 11.9135C262.574 11.9586 262.191 11.9699 261.66 11.9699H260.837C260.295 11.9699 259.833 11.8796 259.438 11.6991ZM264.808 14.779H267.098V28.4975L266.545 29.5693H267.888L270.731 31.7805L274.488 27.5499H272.863L271.791 26.3991V15.061L274.082 12.1729H271.791V4.62549L267.109 9.01406V12.015L264.808 14.779ZM89.4792 15.14L92.5591 17.4302V26.636L91.5663 27.7078L89.4679 25.8915L89.4792 15.14ZM166.003 31.3405C166.635 31.7918 166.951 32.3559 166.951 33.044C166.951 33.3599 166.917 33.5968 166.872 33.7548C166.714 33.9917 166.59 34.1496 166.511 34.2286C166.296 34.443 166.025 34.5783 165.721 34.6235C165.382 34.6799 164.931 34.5107 164.378 34.1271C163.826 33.7435 162.991 33.5517 161.885 33.5517C161.174 33.5517 160.531 33.6194 159.945 33.7548C159.369 33.8902 158.76 34.1158 158.128 34.4317L163.905 27.3129V28.2268C163.905 28.757 163.95 29.1857 164.04 29.5354C164.13 29.8739 164.333 30.2123 164.649 30.5282C165.1 30.799 165.552 31.081 166.003 31.3405ZM160.904 14.6662L163.905 16.8774V25.8125L163.036 26.7601L160.904 24.6279V14.6662ZM41.6561 21.5819V15.8056L44.5442 19.4383L41.6561 21.5819ZM109.369 15.061L106.684 19.8445H104.664V14.6662C105.454 15.1626 106.311 15.4221 107.237 15.4221C107.97 15.4108 108.681 15.298 109.369 15.061ZM184.731 14.7452L187.81 17.0805V26.2863L186.829 27.3581L184.731 25.4966V14.7452ZM105.409 22.7213H108.297V27.8206C107.891 27.674 107.473 27.5611 107.056 27.4822C106.774 27.4483 106.21 27.4258 105.341 27.4258C104.834 27.4145 104.337 27.4709 103.841 27.5837C103.423 27.6852 102.916 27.8657 102.34 28.1027L105.409 22.7213ZM224.656 11.9699L225.446 11.293V33.8563L224.656 33.3825V11.9699ZM226.394 10.7063L228.808 9.16072L230.545 10.4243V25.2822C229.722 24.8084 229.282 24.5602 229.203 24.5264L228.334 24.2443C227.691 24.0864 227.037 23.9284 226.394 23.7705V10.7063ZM15.2118 12.4437C15.4713 12.4437 15.6856 12.4211 15.8436 12.3647V26.7489C14.8508 27.2453 13.7564 27.5047 12.6396 27.5047C11.9852 27.5047 11.3196 27.4258 10.6653 27.2678C10.0109 27.1099 9.49197 26.8955 9.11967 26.636L13.6211 22.1347V12.2519C13.8129 12.3534 14.0159 12.4211 14.2303 12.4324C14.4559 12.4437 14.6026 12.455 14.6815 12.455L15.2118 12.4437ZM242.132 15.14L245.212 17.4302V26.636L244.264 27.7078L242.132 25.8915V15.14ZM63.159 11.3832L64.6256 10.2325L67.6717 13.3124V27.5047L66.442 28.7683L63.159 25.6094V11.3832ZM260.07 15.14C260.408 15.0836 260.747 14.9934 261.051 14.858L258.366 19.6414H256.347V14.4631C257.125 14.9595 258.028 15.219 258.953 15.219C259.359 15.219 259.731 15.1851 260.07 15.14ZM257.103 22.5295H259.991V27.6288C259.585 27.4822 259.167 27.3694 258.75 27.2904C258.468 27.2453 257.904 27.234 257.024 27.234C256.516 27.2227 256.008 27.2791 255.523 27.3919C255.027 27.5273 254.53 27.6965 254.057 27.9109L257.103 22.5295ZM73.5494 11.3832L74.9822 10.2325L78.0621 13.3124V27.5047L76.7986 28.7683L73.5607 25.6094L73.5494 11.3832Z" fill="white"/>
</g>
<defs>
<clipPath id="clip0_136_10">
<rect width="274.167" height="40" fill="white" transform="translate(0.75)"/>
</clipPath>
</defs>
</svg>
