<svg width="181" height="40" viewBox="0 0 181 40" fill="none" xmlns="http://www.w3.org/2000/svg">
<g clip-path="url(#clip0_136_14)">
<path d="M161.453 31.9149H167.957C168.209 32.7349 169.067 33.5548 170.675 33.5548C172.852 33.5548 173.602 32.2026 173.602 30.2031V28.7789H173.458C172.384 30.0304 170.956 30.9511 168.851 30.9511C164.705 30.9511 161.1 27.887 161.1 21.8955C161.1 16.4076 164.063 12.1279 168.534 12.1279C171.108 12.1279 172.679 13.1637 173.718 14.8036H173.826V12.7033H180.257V29.3112C180.257 32.3752 179.183 34.7632 177.575 36.1945C175.895 37.6906 173.501 38.2948 170.783 38.2948C165.671 38.2948 162.102 36.1874 161.453 31.9149ZM173.891 21.5719C173.891 19.1839 172.751 17.2563 170.783 17.2563C168.887 17.2563 167.676 18.9681 167.676 21.5719C167.676 24.1397 168.894 25.9882 170.783 25.9882C172.744 25.9954 173.891 24.1037 173.891 21.5719ZM153.919 15.976H154.027C155.418 13.3003 157.243 12.3077 159.564 12.3077C160.098 12.3077 160.458 12.3797 160.675 12.4876V18.3711H160.53C156.565 17.6591 154.243 19.5507 154.243 23.8591V31.879H147.487V12.7033H153.919V15.976ZM0.25 5H13.4733C15.9752 5 17.9003 5.60418 19.263 6.71185C20.7988 7.95618 21.6207 9.81189 21.6207 12.02C21.6207 14.5878 20.5825 16.1918 18.4411 17.1916V17.2994C21.2314 18.2273 22.8392 20.7231 22.8392 23.7513C22.8392 26.6355 21.7289 28.8868 19.9119 30.239C18.3762 31.3467 16.379 31.879 13.7329 31.879H0.25V5ZM12.8316 25.9234C14.4395 25.9234 15.6147 24.9596 15.6147 23.1758C15.6147 21.3201 14.3313 20.4282 12.7956 20.4282H7.57546V25.9162H12.8316V25.9234ZM12.1467 15.5157C13.5743 15.5157 14.6125 14.7317 14.6125 13.1637C14.6125 11.6316 13.5382 10.8836 12.1106 10.8836H7.57546V15.5157H12.1467Z" fill="white"/>
<path d="M24.0505 5H30.9794V31.879H24.0505V5ZM32.306 22.3199C32.306 16.2637 36.2355 12.1639 42.3137 12.1639C48.3918 12.1639 52.2492 16.2637 52.2492 22.3199C52.2492 28.4193 48.3918 32.4759 42.3137 32.4759C36.2355 32.4831 32.306 28.4193 32.306 22.3199ZM45.3852 22.3199C45.3852 18.9681 44.3108 16.8679 42.2416 16.8679C40.1723 16.8679 39.1701 18.9681 39.1701 22.3199C39.1701 25.7077 40.1723 27.8079 42.2416 27.8079C44.3108 27.8151 45.3852 25.7077 45.3852 22.3199ZM53.0351 22.3199C53.0351 16.2637 56.9646 12.1639 63.0427 12.1639C69.1208 12.1639 72.9782 16.2637 72.9782 22.3199C72.9782 28.4193 69.1208 32.4759 63.0427 32.4759C56.9646 32.4831 53.0351 28.4193 53.0351 22.3199ZM66.1142 22.3199C66.1142 18.9681 65.0399 16.8679 62.9706 16.8679C60.9013 16.8679 59.8991 18.9681 59.8991 22.3199C59.8991 25.7077 60.9013 27.8079 62.9706 27.8079C65.0399 27.8151 66.1142 25.7077 66.1142 22.3199ZM74.2976 12.7033H80.729V15.5876H80.8372C82.1206 13.3435 83.8726 12.1279 86.6269 12.1279C89.0567 12.1279 90.8808 13.3363 91.8109 15.4437H91.9191C93.4909 12.9119 95.5313 12.1279 97.889 12.1279C102.359 12.1279 104.284 15.4078 104.284 19.8241V31.8718H97.5285V21.0396C97.5285 19.076 96.9229 17.7957 95.2069 17.7957C93.5269 17.7957 92.6689 19.3637 92.6689 21.4352V31.879H85.9059V21.0396C85.9059 19.076 85.3002 17.7957 83.5842 17.7957C81.9043 17.7957 81.0463 19.3637 81.0463 21.4352V31.879H74.2976V12.7033ZM112.533 29.3831H112.461V31.879H106.029V5H112.785V14.6957H112.893C114.177 13.0198 115.893 12.1279 118.358 12.1279C123.182 12.1279 125.972 16.4795 125.972 22.248C125.972 28.7717 122.937 32.5119 117.933 32.5119C115.857 32.5191 113.715 31.5193 112.533 29.3831ZM119.108 22.1833C119.108 19.0832 117.969 17.0837 115.929 17.0837C113.859 17.0837 112.533 19.0832 112.533 22.1833C112.533 25.2473 113.852 27.2828 115.929 27.2828C117.998 27.2757 119.108 25.2833 119.108 22.1833ZM126.83 22.2552C126.83 16.2637 130.796 12.0991 136.55 12.0991C139.405 12.0991 141.625 12.991 143.305 14.595C145.519 16.7312 146.521 20.083 146.449 24.039H133.55C133.839 26.4269 134.978 27.6425 137.018 27.6425C138.201 27.6425 139.232 27.1102 139.664 25.8227H146.168C145.029 30.2031 141.633 32.4184 136.809 32.4184C130.832 32.4112 126.83 28.3833 126.83 22.2552ZM133.55 20.2556H139.693C139.585 17.9396 138.302 16.724 136.694 16.724C134.834 16.724 133.795 18.0475 133.55 20.2556Z" fill="white"/>
</g>
<defs>
<clipPath id="clip0_136_14">
<rect width="180" height="40" fill="white" transform="translate(0.25)"/>
</clipPath>
</defs>
</svg>
